name rise30.3154peak39.0474fall46.5389.mot
datacolumns 19
datarows 11
range 22.38825500000000 22.40491700000000
endheader
time	ground_force1_vx	ground_force1_vy	ground_force1_vz	ground_force1_px	ground_force1_py	ground_force1_pz	ground_force2_vx	ground_force2_vy	ground_force2_vz	ground_force2_px	ground_force2_py	ground_force2_pz	ground_torque1_x	ground_torque1_y	ground_torque1_z	ground_torque2_x	ground_torque2_y	ground_torque2_z	
22.38825500000000	-37.10101100000000	793.94785400000001	52.58701400000000	0.17094700000000	0.00000000000000	0.08923900000000	-8.96649600000000	39.45958500000000	6.70051100000000	0.36437500000000	0.00000000000000	-0.08640900000000	0.00000000000000	24.62589000000000	0.00000000000000	0.00000000000000	4.21759900000000	0.00000000000000	
22.38992300000000	-37.18247800000000	790.93837699999995	52.48145100000000	0.17011800000000	0.00000000000000	0.08915900000000	-9.98270100000000	45.91013400000000	7.55792200000000	0.36742100000000	0.00000000000000	-0.08721700000000	0.00000000000000	24.46177400000000	0.00000000000000	0.00000000000000	4.78696700000000	0.00000000000000	
22.39158200000000	-37.28115800000000	787.83004700000004	52.35915600000000	0.16929800000000	0.00000000000000	0.08907500000000	-10.86914300000000	52.35657700000000	8.34494400000000	0.37042800000000	0.00000000000000	-0.08795000000000	0.00000000000000	24.29633200000000	0.00000000000000	0.00000000000000	5.32079100000000	0.00000000000000	
22.39325600000000	-37.39797700000000	784.62418000000002	52.21982800000000	0.16848700000000	0.00000000000000	0.08898700000000	-11.60155300000000	58.71053800000000	9.04369200000000	0.37339100000000	0.00000000000000	-0.08861900000000	0.00000000000000	24.12977600000000	0.00000000000000	0.00000000000000	5.80771000000000	0.00000000000000	
22.39491800000000	-37.53378900000000	781.32202900000004	52.06319000000000	0.16768600000000	0.00000000000000	0.08889600000000	-12.16440800000000	64.90801999999999	9.64204600000000	0.37630300000000	0.00000000000000	-0.08923200000000	0.00000000000000	23.96231100000000	0.00000000000000	0.00000000000000	6.23975300000000	0.00000000000000	
22.39658300000000	-37.68937800000000	777.92476899999997	51.88899000000000	0.16689500000000	0.00000000000000	0.08880100000000	-12.55094800000000	70.91108000000000	10.13376000000000	0.37916100000000	0.00000000000000	-0.08979700000000	0.00000000000000	23.79413200000000	0.00000000000000	0.00000000000000	6.61247700000000	0.00000000000000	
22.39824900000000	-37.86545100000000	774.43349499999999	51.69699800000000	0.16611500000000	0.00000000000000	0.08870200000000	-12.76246500000000	76.70709700000000	10.51807600000000	0.38196100000000	0.00000000000000	-0.09032000000000	0.00000000000000	23.62542600000000	0.00000000000000	0.00000000000000	6.92480400000000	0.00000000000000	
22.39991500000000	-38.06263500000000	770.84920899999997	51.48701300000000	0.16534700000000	0.00000000000000	0.08859900000000	-12.80706300000000	82.30607100000000	10.79894600000000	0.38470000000000	0.00000000000000	-0.09080600000000	0.00000000000000	23.45636700000000	0.00000000000000	0.00000000000000	7.17860600000000	0.00000000000000	
22.40158100000000	-38.28147300000000	767.17281400000002	51.25885500000000	0.16459000000000	0.00000000000000	0.08849200000000	-12.69807200000000	87.73652600000000	10.98401300000000	0.38737500000000	0.00000000000000	-0.09125900000000	0.00000000000000	23.28712000000000	0.00000000000000	0.00000000000000	7.37811200000000	0.00000000000000	
22.40324900000000	-38.52242000000000	763.40510900000004	51.01237300000000	0.16384600000000	0.00000000000000	0.08838100000000	-12.45231000000000	93.04060200000001	11.08346000000000	0.38998400000000	0.00000000000000	-0.09168400000000	0.00000000000000	23.11783600000000	0.00000000000000	0.00000000000000	7.52922800000000	0.00000000000000	
22.40491700000000	-38.78584100000000	759.54678200000001	50.74744100000000	0.16311400000000	0.00000000000000	0.08826600000000	-12.08836300000000	98.26887400000000	11.10885300000000	0.39252400000000	0.00000000000000	-0.09208300000000	0.00000000000000	22.94865600000000	0.00000000000000	0.00000000000000	7.63882500000000	0.00000000000000	
